<mxfile host="app.diagrams.net" modified="2020-11-23T10:14:13.326Z" agent="5.0 (Windows NT 10.0; Win64; x64) AppleWebKit/537.36 (KHTML, like Gecko) Chrome/87.0.4280.66 Safari/537.36" etag="x9o0J49EcZHtVYhgczvY" version="13.10.1" type="github" pages="2">
  <diagram id="dczaTCFO-Prc4Xv91lC_" name="Page-1">
    <mxGraphModel dx="868" dy="426" grid="1" gridSize="10" guides="1" tooltips="1" connect="1" arrows="1" fold="1" page="1" pageScale="1" pageWidth="827" pageHeight="1169" math="0" shadow="0">
      <root>
        <mxCell id="0" />
        <mxCell id="1" parent="0" />
        <mxCell id="IarRQ0k7UdLhVOw3tnw--9" value="" style="rounded=0;whiteSpace=wrap;html=1;" parent="1" vertex="1">
          <mxGeometry x="202" y="198.75" width="346" height="240" as="geometry" />
        </mxCell>
        <mxCell id="IarRQ0k7UdLhVOw3tnw--26" value="" style="rounded=1;whiteSpace=wrap;html=1;" parent="1" vertex="1">
          <mxGeometry x="218" y="218.75" width="70" height="30" as="geometry" />
        </mxCell>
        <mxCell id="IarRQ0k7UdLhVOw3tnw--30" value="" style="rounded=1;whiteSpace=wrap;html=1;" parent="1" vertex="1">
          <mxGeometry x="218" y="218.75" width="70" height="30" as="geometry" />
        </mxCell>
        <mxCell id="IarRQ0k7UdLhVOw3tnw--38" value="" style="rounded=1;whiteSpace=wrap;html=1;" parent="1" vertex="1">
          <mxGeometry x="218" y="218.75" width="70" height="30" as="geometry" />
        </mxCell>
        <mxCell id="IarRQ0k7UdLhVOw3tnw--42" value="&lt;font color=&quot;#ffffff&quot; size=&quot;1&quot;&gt;Contract Mgnt&lt;/font&gt;" style="rounded=1;whiteSpace=wrap;html=1;fillColor=#6D3E9C;" parent="1" vertex="1">
          <mxGeometry x="458" y="221.25" width="70" height="30" as="geometry" />
        </mxCell>
        <mxCell id="IarRQ0k7UdLhVOw3tnw--43" value="" style="rounded=1;whiteSpace=wrap;html=1;fillColor=#B266FF;" parent="1" vertex="1">
          <mxGeometry x="218" y="218.75" width="70" height="30" as="geometry" />
        </mxCell>
        <mxCell id="IarRQ0k7UdLhVOw3tnw--45" value="&lt;font color=&quot;#ffffff&quot; style=&quot;font-size: 10px&quot;&gt;Billing Account Mgnt&lt;/font&gt;" style="rounded=1;whiteSpace=wrap;html=1;fillColor=#6D3E9C;" parent="1" vertex="1">
          <mxGeometry x="218" y="258.75" width="70" height="30" as="geometry" />
        </mxCell>
        <mxCell id="IarRQ0k7UdLhVOw3tnw--49" value="" style="rounded=1;whiteSpace=wrap;html=1;fillColor=#B266FF;" parent="1" vertex="1">
          <mxGeometry x="458" y="298.75" width="70" height="30" as="geometry" />
        </mxCell>
        <mxCell id="IarRQ0k7UdLhVOw3tnw--50" value="&lt;font color=&quot;#ffffff&quot; style=&quot;font-size: 10px&quot;&gt;Payment &amp;amp; Refund Mgnt&lt;/font&gt;" style="rounded=1;whiteSpace=wrap;html=1;fillColor=#6D3E9C;" parent="1" vertex="1">
          <mxGeometry x="378" y="298.75" width="70" height="30" as="geometry" />
        </mxCell>
        <mxCell id="IarRQ0k7UdLhVOw3tnw--51" value="&lt;font color=&quot;#ffffff&quot; style=&quot;font-size: 8px&quot;&gt;Billing Notification Mgnt&lt;/font&gt;" style="rounded=1;whiteSpace=wrap;html=1;fillColor=#6D3E9C;" parent="1" vertex="1">
          <mxGeometry x="458" y="338.75" width="70" height="30" as="geometry" />
        </mxCell>
        <mxCell id="IarRQ0k7UdLhVOw3tnw--52" value="Taxation Mgnt" style="rounded=1;whiteSpace=wrap;html=1;fillColor=#6D3E9C;fontColor=#FFFFFF;fontSize=10;" parent="1" vertex="1">
          <mxGeometry x="218" y="298.75" width="70" height="30" as="geometry" />
        </mxCell>
        <mxCell id="IarRQ0k7UdLhVOw3tnw--53" value="&lt;font color=&quot;#ffffff&quot; style=&quot;font-size: 10px&quot;&gt;Bill Enquiry Mgnt&lt;/font&gt;" style="rounded=1;whiteSpace=wrap;html=1;fillColor=#6D3E9C;direction=east;" parent="1" vertex="1">
          <mxGeometry x="218" y="338.75" width="70" height="30" as="geometry" />
        </mxCell>
        <mxCell id="IarRQ0k7UdLhVOw3tnw--54" value="&lt;font color=&quot;#ffffff&quot; style=&quot;font-size: 10px&quot;&gt;Billing Disputes Mgnt&lt;/font&gt;" style="rounded=1;whiteSpace=wrap;html=1;fillColor=#6D3E9C;" parent="1" vertex="1">
          <mxGeometry x="298" y="338.75" width="70" height="30" as="geometry" />
        </mxCell>
        <mxCell id="IarRQ0k7UdLhVOw3tnw--55" value="&lt;font color=&quot;#ffffff&quot; size=&quot;1&quot;&gt;Invoice Mgnt&lt;/font&gt;" style="rounded=1;whiteSpace=wrap;html=1;fillColor=#6D3E9C;" parent="1" vertex="1">
          <mxGeometry x="298" y="298.75" width="70" height="30" as="geometry" />
        </mxCell>
        <mxCell id="IarRQ0k7UdLhVOw3tnw--56" value="&lt;font color=&quot;#ffffff&quot; style=&quot;font-size: 8px&quot;&gt;Billing Adjustment Mgnt&lt;/font&gt;" style="rounded=1;whiteSpace=wrap;html=1;fillColor=#6D3E9C;" parent="1" vertex="1">
          <mxGeometry x="378" y="338.75" width="70" height="30" as="geometry" />
        </mxCell>
        <mxCell id="IarRQ0k7UdLhVOw3tnw--57" value="&lt;font color=&quot;#ffffff&quot; style=&quot;font-size: 10px&quot;&gt;Billing Reports Mgnt&lt;/font&gt;" style="rounded=1;whiteSpace=wrap;html=1;fillColor=#6D3E9C;" parent="1" vertex="1">
          <mxGeometry x="218" y="378.75" width="70" height="30" as="geometry" />
        </mxCell>
        <mxCell id="IarRQ0k7UdLhVOw3tnw--58" value="&lt;font color=&quot;#ffffff&quot; style=&quot;font-size: 10px&quot;&gt;Loyalty Mgnt&lt;/font&gt;" style="rounded=1;whiteSpace=wrap;html=1;fillColor=#6D3E9C;" parent="1" vertex="1">
          <mxGeometry x="298" y="378.75" width="70" height="30" as="geometry" />
        </mxCell>
        <mxCell id="IarRQ0k7UdLhVOw3tnw--60" value="" style="rounded=1;whiteSpace=wrap;html=1;fillColor=#B266FF;" parent="1" vertex="1">
          <mxGeometry x="218" y="218.75" width="70" height="30" as="geometry" />
        </mxCell>
        <mxCell id="IarRQ0k7UdLhVOw3tnw--62" value="" style="rounded=1;whiteSpace=wrap;html=1;fillColor=#6D3E9C;" parent="1" vertex="1">
          <mxGeometry x="218" y="218.75" width="70" height="30" as="geometry" />
        </mxCell>
        <mxCell id="IarRQ0k7UdLhVOw3tnw--65" value="product &amp;amp; Services" style="text;html=1;strokeColor=none;fillColor=none;align=center;verticalAlign=middle;whiteSpace=wrap;rounded=0;fontColor=#FFFFFF;fontSize=10;" parent="1" vertex="1">
          <mxGeometry x="228" y="223.75" width="50" height="25" as="geometry" />
        </mxCell>
        <mxCell id="IarRQ0k7UdLhVOw3tnw--79" value="&lt;font color=&quot;#ffffff&quot; size=&quot;1&quot;&gt;Tarrif Mgnt.&lt;/font&gt;" style="rounded=1;whiteSpace=wrap;html=1;fillColor=#6D3E9C;" parent="1" vertex="1">
          <mxGeometry x="298" y="218.75" width="70" height="30" as="geometry" />
        </mxCell>
        <mxCell id="IarRQ0k7UdLhVOw3tnw--80" value="&lt;font color=&quot;#ffffff&quot; size=&quot;1&quot;&gt;promotions &amp;amp; Discount Mgnt&lt;/font&gt;" style="rounded=1;whiteSpace=wrap;html=1;fillColor=#6D3E9C;" parent="1" vertex="1">
          <mxGeometry x="379" y="218.75" width="70" height="30" as="geometry" />
        </mxCell>
        <mxCell id="IarRQ0k7UdLhVOw3tnw--81" value="&lt;font color=&quot;#ffffff&quot; style=&quot;font-size: 8px&quot;&gt;Bill Calculation &amp;amp; Presentment Mgnt&lt;/font&gt;" style="rounded=1;whiteSpace=wrap;html=1;fillColor=#6D3E9C;" parent="1" vertex="1">
          <mxGeometry x="458" y="258.75" width="70" height="30" as="geometry" />
        </mxCell>
        <mxCell id="IarRQ0k7UdLhVOw3tnw--82" value="&lt;font color=&quot;#ffffff&quot; style=&quot;font-size: 8px&quot;&gt;Balance &amp;amp; Credit Control Mgnt&lt;/font&gt;" style="rounded=1;whiteSpace=wrap;html=1;fillColor=#6D3E9C;" parent="1" vertex="1">
          <mxGeometry x="379" y="258.75" width="70" height="30" as="geometry" />
        </mxCell>
        <mxCell id="IarRQ0k7UdLhVOw3tnw--83" value="&lt;font color=&quot;#ffffff&quot; style=&quot;font-size: 9px&quot;&gt;Dunning &amp;amp; Collection Mgnt&lt;/font&gt;" style="rounded=1;whiteSpace=wrap;html=1;fillColor=#6D3E9C;" parent="1" vertex="1">
          <mxGeometry x="458" y="298.75" width="70" height="30" as="geometry" />
        </mxCell>
        <mxCell id="IarRQ0k7UdLhVOw3tnw--84" value="BILLING &amp;amp; ACCOUNT RECEIVABLE MGNT - NETCRACKER RBM - B2C Market" style="text;html=1;strokeColor=none;fillColor=none;align=center;verticalAlign=middle;whiteSpace=wrap;rounded=0;fontSize=8;fontColor=none;labelPosition=center;verticalLabelPosition=middle;fontStyle=1" parent="1" vertex="1">
          <mxGeometry x="202" y="198.75" width="312" height="15" as="geometry" />
        </mxCell>
        <mxCell id="IarRQ0k7UdLhVOw3tnw--88" value="" style="rounded=1;whiteSpace=wrap;html=1;fontSize=10;" parent="1" vertex="1">
          <mxGeometry x="323" y="35" width="90" height="60" as="geometry" />
        </mxCell>
        <mxCell id="IarRQ0k7UdLhVOw3tnw--86" value="" style="rounded=1;whiteSpace=wrap;html=1;fillColor=#6D3E9C;fontSize=5;" parent="1" vertex="1">
          <mxGeometry x="333" y="55" width="70" height="30" as="geometry" />
        </mxCell>
        <mxCell id="IarRQ0k7UdLhVOw3tnw--89" style="edgeStyle=orthogonalEdgeStyle;rounded=0;orthogonalLoop=1;jettySize=auto;html=1;exitX=0.75;exitY=1;exitDx=0;exitDy=0;entryX=0.757;entryY=0.667;entryDx=0;entryDy=0;entryPerimeter=0;fontSize=10;fontColor=none;" parent="1" edge="1">
          <mxGeometry relative="1" as="geometry">
            <mxPoint x="465.5" y="65" as="sourcePoint" />
            <mxPoint x="465.99" y="55.00999999999999" as="targetPoint" />
          </mxGeometry>
        </mxCell>
        <mxCell id="IarRQ0k7UdLhVOw3tnw--90" value="SIEBEL CRM" style="text;html=1;strokeColor=none;fillColor=none;align=center;verticalAlign=middle;whiteSpace=wrap;rounded=0;fontSize=8;fontColor=none;labelPosition=center;verticalLabelPosition=middle;textDirection=ltr;fontStyle=1" parent="1" vertex="1">
          <mxGeometry x="317" y="35" width="70" height="20" as="geometry" />
        </mxCell>
        <mxCell id="IarRQ0k7UdLhVOw3tnw--91" value="&lt;font color=&quot;#ffffff&quot; style=&quot;font-size: 8px;&quot;&gt;customer relationship Mgnt&lt;/font&gt;" style="text;html=1;strokeColor=none;fillColor=none;align=left;verticalAlign=middle;whiteSpace=wrap;rounded=0;fontSize=8;fontColor=none;" parent="1" vertex="1">
          <mxGeometry x="343" y="55" width="50" height="30" as="geometry" />
        </mxCell>
        <mxCell id="IarRQ0k7UdLhVOw3tnw--92" value="" style="rounded=1;whiteSpace=wrap;html=1;fontSize=10;" parent="1" vertex="1">
          <mxGeometry x="419" y="35" width="90" height="60" as="geometry" />
        </mxCell>
        <mxCell id="IarRQ0k7UdLhVOw3tnw--93" value="" style="rounded=1;whiteSpace=wrap;html=1;fillColor=#6D3E9C;fontSize=5;" parent="1" vertex="1">
          <mxGeometry x="429" y="55" width="70" height="30" as="geometry" />
        </mxCell>
        <mxCell id="IarRQ0k7UdLhVOw3tnw--94" value="New Order Mgnt." style="text;html=1;strokeColor=none;fillColor=none;align=center;verticalAlign=middle;whiteSpace=wrap;rounded=0;fontSize=8;fontColor=none;labelPosition=center;verticalLabelPosition=middle;textDirection=ltr;fontStyle=1" parent="1" vertex="1">
          <mxGeometry x="419" y="35" width="70" height="20" as="geometry" />
        </mxCell>
        <mxCell id="IarRQ0k7UdLhVOw3tnw--95" value="&lt;font color=&quot;#ffffff&quot; style=&quot;font-size: 8px&quot;&gt;Customer &amp;amp; Service Order Mgnt&lt;/font&gt;" style="text;html=1;strokeColor=none;fillColor=none;align=left;verticalAlign=middle;whiteSpace=wrap;rounded=0;fontSize=8;fontColor=none;" parent="1" vertex="1">
          <mxGeometry x="439" y="55" width="50" height="30" as="geometry" />
        </mxCell>
        <mxCell id="IarRQ0k7UdLhVOw3tnw--100" value="" style="edgeStyle=orthogonalEdgeStyle;rounded=0;orthogonalLoop=1;jettySize=auto;html=1;fontSize=8;fontColor=none;strokeColor=none;" parent="1" source="IarRQ0k7UdLhVOw3tnw--96" edge="1">
          <mxGeometry relative="1" as="geometry">
            <mxPoint x="45" y="275" as="targetPoint" />
          </mxGeometry>
        </mxCell>
        <mxCell id="IarRQ0k7UdLhVOw3tnw--96" value="&lt;font color=&quot;#ffffff&quot; style=&quot;font-size: 9px;&quot;&gt;Clearing&lt;/font&gt;&lt;font color=&quot;#ffffff&quot; style=&quot;font-size: 9px;&quot;&gt;&amp;nbsp;House&lt;/font&gt;" style="rounded=1;whiteSpace=wrap;html=1;fillColor=#CC0066;fontSize=9;" parent="1" vertex="1">
          <mxGeometry x="10" y="165" width="70" height="30" as="geometry" />
        </mxCell>
        <mxCell id="IarRQ0k7UdLhVOw3tnw--110" value="" style="edgeStyle=orthogonalEdgeStyle;rounded=0;orthogonalLoop=1;jettySize=auto;html=1;fontSize=8;fontColor=none;" parent="1" source="IarRQ0k7UdLhVOw3tnw--101" target="IarRQ0k7UdLhVOw3tnw--96" edge="1">
          <mxGeometry relative="1" as="geometry" />
        </mxCell>
        <mxCell id="IarRQ0k7UdLhVOw3tnw--111" value="" style="edgeStyle=orthogonalEdgeStyle;rounded=0;orthogonalLoop=1;jettySize=auto;html=1;fontSize=8;fontColor=none;" parent="1" source="IarRQ0k7UdLhVOw3tnw--101" target="IarRQ0k7UdLhVOw3tnw--96" edge="1">
          <mxGeometry relative="1" as="geometry" />
        </mxCell>
        <mxCell id="IarRQ0k7UdLhVOw3tnw--101" value="&lt;font color=&quot;#ffffff&quot; style=&quot;font-size: 10px&quot;&gt;ROAMIT&lt;/font&gt;" style="rounded=1;whiteSpace=wrap;html=1;fillColor=#CC0066;" parent="1" vertex="1">
          <mxGeometry x="10" y="215" width="70" height="30" as="geometry" />
        </mxCell>
        <mxCell id="IarRQ0k7UdLhVOw3tnw--102" value="&lt;font color=&quot;#ffffff&quot; style=&quot;font-size: 10px&quot;&gt;Collecting Manager&lt;/font&gt;" style="rounded=1;whiteSpace=wrap;html=1;fillColor=#CC0066;" parent="1" vertex="1">
          <mxGeometry x="10" y="382.5" width="70" height="30" as="geometry" />
        </mxCell>
        <mxCell id="IarRQ0k7UdLhVOw3tnw--103" value="" style="edgeStyle=orthogonalEdgeStyle;rounded=0;orthogonalLoop=1;jettySize=auto;html=1;fontSize=8;fontColor=none;strokeColor=none;" parent="1" source="IarRQ0k7UdLhVOw3tnw--105" edge="1">
          <mxGeometry relative="1" as="geometry">
            <mxPoint x="65" y="435" as="targetPoint" />
            <Array as="points">
              <mxPoint x="65" y="405" />
              <mxPoint x="65" y="405" />
            </Array>
          </mxGeometry>
        </mxCell>
        <mxCell id="IarRQ0k7UdLhVOw3tnw--104" value="" style="rounded=1;whiteSpace=wrap;html=1;fillColor=#CC0066;" parent="1" vertex="1">
          <mxGeometry x="10" y="265" width="70" height="30" as="geometry" />
        </mxCell>
        <mxCell id="IarRQ0k7UdLhVOw3tnw--106" value="" style="rounded=1;whiteSpace=wrap;html=1;fillColor=#CC0066;" parent="1" vertex="1">
          <mxGeometry x="10" y="342.5" width="70" height="30" as="geometry" />
        </mxCell>
        <mxCell id="IarRQ0k7UdLhVOw3tnw--108" value="" style="endArrow=classic;startArrow=classic;html=1;fontSize=8;fontColor=none;" parent="1" edge="1">
          <mxGeometry width="50" height="50" relative="1" as="geometry">
            <mxPoint x="44.5" y="215" as="sourcePoint" />
            <mxPoint x="44.5" y="195" as="targetPoint" />
          </mxGeometry>
        </mxCell>
        <mxCell id="IarRQ0k7UdLhVOw3tnw--114" value="" style="endArrow=classic;startArrow=classic;html=1;fontSize=8;fontColor=none;entryX=0.5;entryY=1;entryDx=0;entryDy=0;" parent="1" target="IarRQ0k7UdLhVOw3tnw--101" edge="1">
          <mxGeometry width="50" height="50" relative="1" as="geometry">
            <mxPoint x="45" y="265" as="sourcePoint" />
            <mxPoint x="70" y="245" as="targetPoint" />
          </mxGeometry>
        </mxCell>
        <mxCell id="IarRQ0k7UdLhVOw3tnw--105" value="" style="rounded=1;whiteSpace=wrap;html=1;fillColor=#CC0066;" parent="1" vertex="1">
          <mxGeometry x="10" y="302.5" width="70" height="30" as="geometry" />
        </mxCell>
        <mxCell id="IarRQ0k7UdLhVOw3tnw--115" value="" style="edgeStyle=orthogonalEdgeStyle;rounded=0;orthogonalLoop=1;jettySize=auto;html=1;fontSize=8;fontColor=none;strokeColor=none;" parent="1" source="IarRQ0k7UdLhVOw3tnw--104" target="IarRQ0k7UdLhVOw3tnw--105" edge="1">
          <mxGeometry relative="1" as="geometry">
            <mxPoint x="45" y="432.5" as="targetPoint" />
            <mxPoint x="45" y="295" as="sourcePoint" />
          </mxGeometry>
        </mxCell>
        <mxCell id="IarRQ0k7UdLhVOw3tnw--165" style="edgeStyle=orthogonalEdgeStyle;rounded=0;orthogonalLoop=1;jettySize=auto;html=1;fontSize=8;fontColor=none;" parent="1" source="IarRQ0k7UdLhVOw3tnw--116" edge="1">
          <mxGeometry relative="1" as="geometry">
            <mxPoint x="200" y="280" as="targetPoint" />
          </mxGeometry>
        </mxCell>
        <mxCell id="IarRQ0k7UdLhVOw3tnw--116" value="&lt;font color=&quot;#ffffff&quot; style=&quot;font-size: 10px&quot;&gt;Comptel Mediation&lt;/font&gt;" style="rounded=1;whiteSpace=wrap;html=1;fillColor=#CC0066;" parent="1" vertex="1">
          <mxGeometry x="10" y="265" width="70" height="30" as="geometry" />
        </mxCell>
        <mxCell id="IarRQ0k7UdLhVOw3tnw--117" value="&lt;font style=&quot;font-size: 10px&quot;&gt;DOCS&lt;/font&gt;" style="rounded=1;whiteSpace=wrap;html=1;fillColor=#CC0066;fontColor=#FFFFFF;" parent="1" vertex="1">
          <mxGeometry x="10" y="300" width="70" height="32.5" as="geometry" />
        </mxCell>
        <mxCell id="IarRQ0k7UdLhVOw3tnw--118" value="Reporting Server" style="rounded=1;whiteSpace=wrap;html=1;fillColor=#CC0066;fontColor=#FFFFFF;fontSize=9;" parent="1" vertex="1">
          <mxGeometry x="10" y="342.5" width="70" height="30" as="geometry" />
        </mxCell>
        <mxCell id="IarRQ0k7UdLhVOw3tnw--119" value="&lt;font color=&quot;#ffffff&quot; style=&quot;font-size: 10px&quot;&gt;Fraud Mgnt System&lt;/font&gt;" style="rounded=1;whiteSpace=wrap;html=1;fillColor=#CC0066;" parent="1" vertex="1">
          <mxGeometry x="737" y="303.13" width="70" height="30" as="geometry" />
        </mxCell>
        <mxCell id="IarRQ0k7UdLhVOw3tnw--120" value="&lt;font color=&quot;#ffffff&quot; style=&quot;font-size: 10px&quot;&gt;call Center(902)&lt;/font&gt;" style="rounded=1;whiteSpace=wrap;html=1;fillColor=#CC0066;" parent="1" vertex="1">
          <mxGeometry x="737" y="185.63" width="70" height="30" as="geometry" />
        </mxCell>
        <mxCell id="IarRQ0k7UdLhVOw3tnw--121" value="&lt;font style=&quot;font-size: 10px&quot;&gt;Call Center(907)&lt;/font&gt;" style="rounded=1;whiteSpace=wrap;html=1;fillColor=#CC0066;fontColor=#FFFFFF;" parent="1" vertex="1">
          <mxGeometry x="737" y="223.13" width="70" height="30" as="geometry" />
        </mxCell>
        <mxCell id="IarRQ0k7UdLhVOw3tnw--122" value="&lt;font color=&quot;#ffffff&quot; style=&quot;font-size: 10px&quot;&gt;Revenue Assurance&lt;/font&gt;" style="rounded=1;whiteSpace=wrap;html=1;fillColor=#CC0066;" parent="1" vertex="1">
          <mxGeometry x="737" y="263.13" width="70" height="30" as="geometry" />
        </mxCell>
        <mxCell id="IarRQ0k7UdLhVOw3tnw--123" value="&lt;font color=&quot;#ffffff&quot; style=&quot;font-size: 9px&quot;&gt;Corporate Web Site (CWS)&lt;/font&gt;" style="rounded=1;whiteSpace=wrap;html=1;fillColor=#CC0066;" parent="1" vertex="1">
          <mxGeometry x="737" y="421.88" width="70" height="30" as="geometry" />
        </mxCell>
        <mxCell id="IarRQ0k7UdLhVOw3tnw--124" value="&lt;font color=&quot;#ffffff&quot; style=&quot;font-size: 10px&quot;&gt;EDW&lt;/font&gt;" style="rounded=1;whiteSpace=wrap;html=1;fillColor=#CC0066;" parent="1" vertex="1">
          <mxGeometry x="737" y="341.88" width="70" height="30" as="geometry" />
        </mxCell>
        <mxCell id="IarRQ0k7UdLhVOw3tnw--125" value="&lt;font color=&quot;#ffffff&quot; style=&quot;font-size: 9px&quot;&gt;Oracle Financial Mgnt System&lt;/font&gt;" style="rounded=1;whiteSpace=wrap;html=1;fillColor=#CC0066;" parent="1" vertex="1">
          <mxGeometry x="737" y="381.88" width="70" height="30" as="geometry" />
        </mxCell>
        <mxCell id="IarRQ0k7UdLhVOw3tnw--127" value="&lt;font color=&quot;#ffffff&quot;&gt;ODS&lt;/font&gt;" style="rounded=1;whiteSpace=wrap;html=1;fillColor=#CC0066;" parent="1" vertex="1">
          <mxGeometry x="630" y="295.63" width="57" height="30" as="geometry" />
        </mxCell>
        <mxCell id="IarRQ0k7UdLhVOw3tnw--129" value="" style="endArrow=none;html=1;fontSize=8;fontColor=none;" parent="1" edge="1">
          <mxGeometry width="50" height="50" relative="1" as="geometry">
            <mxPoint x="707" y="435" as="sourcePoint" />
            <mxPoint x="707" y="201.88" as="targetPoint" />
            <Array as="points">
              <mxPoint x="707" y="371.88" />
            </Array>
          </mxGeometry>
        </mxCell>
        <mxCell id="IarRQ0k7UdLhVOw3tnw--131" value="" style="endArrow=classic;html=1;fontSize=8;fontColor=none;" parent="1" edge="1">
          <mxGeometry width="50" height="50" relative="1" as="geometry">
            <mxPoint x="707" y="201.88" as="sourcePoint" />
            <mxPoint x="737" y="201.88" as="targetPoint" />
          </mxGeometry>
        </mxCell>
        <mxCell id="IarRQ0k7UdLhVOw3tnw--133" value="" style="endArrow=classic;html=1;fontSize=8;fontColor=none;entryX=0;entryY=0.5;entryDx=0;entryDy=0;" parent="1" target="IarRQ0k7UdLhVOw3tnw--121" edge="1">
          <mxGeometry width="50" height="50" relative="1" as="geometry">
            <mxPoint x="707" y="237.88" as="sourcePoint" />
            <mxPoint x="747" y="211.88" as="targetPoint" />
          </mxGeometry>
        </mxCell>
        <mxCell id="IarRQ0k7UdLhVOw3tnw--137" value="" style="endArrow=classic;html=1;fontSize=8;fontColor=none;entryX=0;entryY=0.5;entryDx=0;entryDy=0;" parent="1" target="IarRQ0k7UdLhVOw3tnw--122" edge="1">
          <mxGeometry width="50" height="50" relative="1" as="geometry">
            <mxPoint x="707" y="277.88" as="sourcePoint" />
            <mxPoint x="747" y="240.63" as="targetPoint" />
          </mxGeometry>
        </mxCell>
        <mxCell id="IarRQ0k7UdLhVOw3tnw--138" value="" style="endArrow=classic;html=1;fontSize=8;fontColor=none;" parent="1" edge="1">
          <mxGeometry width="50" height="50" relative="1" as="geometry">
            <mxPoint x="707" y="317.88" as="sourcePoint" />
            <mxPoint x="737" y="317.88" as="targetPoint" />
          </mxGeometry>
        </mxCell>
        <mxCell id="IarRQ0k7UdLhVOw3tnw--140" value="" style="endArrow=classic;html=1;fontSize=8;fontColor=none;entryX=0;entryY=0.5;entryDx=0;entryDy=0;" parent="1" target="IarRQ0k7UdLhVOw3tnw--124" edge="1">
          <mxGeometry width="50" height="50" relative="1" as="geometry">
            <mxPoint x="707" y="356.88" as="sourcePoint" />
            <mxPoint x="747" y="327.88" as="targetPoint" />
          </mxGeometry>
        </mxCell>
        <mxCell id="IarRQ0k7UdLhVOw3tnw--141" value="" style="endArrow=classic;html=1;fontSize=8;fontColor=none;entryX=0;entryY=0.5;entryDx=0;entryDy=0;" parent="1" target="IarRQ0k7UdLhVOw3tnw--125" edge="1">
          <mxGeometry width="50" height="50" relative="1" as="geometry">
            <mxPoint x="707" y="396.88" as="sourcePoint" />
            <mxPoint x="747" y="366.88" as="targetPoint" />
          </mxGeometry>
        </mxCell>
        <mxCell id="IarRQ0k7UdLhVOw3tnw--142" value="" style="endArrow=classic;html=1;fontSize=8;fontColor=none;entryX=0;entryY=0.5;entryDx=0;entryDy=0;" parent="1" target="IarRQ0k7UdLhVOw3tnw--123" edge="1">
          <mxGeometry width="50" height="50" relative="1" as="geometry">
            <mxPoint x="707" y="436.88" as="sourcePoint" />
            <mxPoint x="747" y="406.88" as="targetPoint" />
            <Array as="points">
              <mxPoint x="720" y="437" />
            </Array>
          </mxGeometry>
        </mxCell>
        <mxCell id="IarRQ0k7UdLhVOw3tnw--143" value="" style="endArrow=classic;html=1;fontSize=8;fontColor=none;entryX=1;entryY=0.5;entryDx=0;entryDy=0;" parent="1" target="IarRQ0k7UdLhVOw3tnw--127" edge="1">
          <mxGeometry width="50" height="50" relative="1" as="geometry">
            <mxPoint x="707" y="310.88" as="sourcePoint" />
            <mxPoint x="737" y="251.88" as="targetPoint" />
          </mxGeometry>
        </mxCell>
        <mxCell id="IarRQ0k7UdLhVOw3tnw--144" value="&lt;font color=&quot;#ffffff&quot;&gt;EAI (Web Methods)&lt;/font&gt;" style="rounded=0;whiteSpace=wrap;html=1;gradientColor=none;fontSize=8;fontColor=none;align=center;strokeColor=none;fillColor=#6D3E9C;" parent="1" vertex="1">
          <mxGeometry x="143" y="151.25" width="460" height="25" as="geometry" />
        </mxCell>
        <mxCell id="IarRQ0k7UdLhVOw3tnw--145" value="" style="rounded=0;whiteSpace=wrap;html=1;gradientColor=none;fontSize=8;fontColor=none;align=left;strokeColor=none;fillColor=#6D3E9C;" parent="1" vertex="1">
          <mxGeometry x="123" y="151.25" width="37" height="113.75" as="geometry" />
        </mxCell>
        <mxCell id="IarRQ0k7UdLhVOw3tnw--146" value="" style="rounded=0;whiteSpace=wrap;html=1;gradientColor=none;fontSize=8;fontColor=none;align=left;strokeColor=none;fillColor=#6D3E9C;" parent="1" vertex="1">
          <mxGeometry x="590" y="151.25" width="37" height="113.75" as="geometry" />
        </mxCell>
        <mxCell id="IarRQ0k7UdLhVOw3tnw--147" value="&lt;font color=&quot;#ffffff&quot;&gt;EAI (Web Methods)&lt;/font&gt;" style="rounded=0;whiteSpace=wrap;html=1;gradientColor=none;fontSize=8;fontColor=none;align=center;strokeColor=none;fillColor=#6D3E9C;" parent="1" vertex="1">
          <mxGeometry x="143" y="463.75" width="460" height="25" as="geometry" />
        </mxCell>
        <mxCell id="IarRQ0k7UdLhVOw3tnw--148" value="" style="rounded=0;whiteSpace=wrap;html=1;gradientColor=none;fontSize=8;fontColor=none;align=left;strokeColor=none;fillColor=#6D3E9C;" parent="1" vertex="1">
          <mxGeometry x="121" y="378.75" width="34" height="110" as="geometry" />
        </mxCell>
        <mxCell id="IarRQ0k7UdLhVOw3tnw--149" value="" style="rounded=0;whiteSpace=wrap;html=1;gradientColor=none;fontSize=8;fontColor=none;align=left;strokeColor=none;fillColor=#6D3E9C;" parent="1" vertex="1">
          <mxGeometry x="591" y="378.75" width="34" height="110" as="geometry" />
        </mxCell>
        <mxCell id="IarRQ0k7UdLhVOw3tnw--150" value="&lt;font color=&quot;#ffffff&quot;&gt;Email G/W&lt;/font&gt;" style="rounded=1;whiteSpace=wrap;html=1;fillColor=#CC0066;" parent="1" vertex="1">
          <mxGeometry x="148" y="525" width="70" height="30" as="geometry" />
        </mxCell>
        <mxCell id="IarRQ0k7UdLhVOw3tnw--151" value="&lt;font color=&quot;#ffffff&quot;&gt;SMS G/W&lt;/font&gt;" style="rounded=1;whiteSpace=wrap;html=1;fillColor=#CC0066;" parent="1" vertex="1">
          <mxGeometry x="228" y="525" width="70" height="30" as="geometry" />
        </mxCell>
        <mxCell id="IarRQ0k7UdLhVOw3tnw--152" value="&lt;font color=&quot;#ffffff&quot;&gt;SIMAH&lt;/font&gt;" style="rounded=1;whiteSpace=wrap;html=1;fillColor=#CC0066;" parent="1" vertex="1">
          <mxGeometry x="308" y="525" width="70" height="30" as="geometry" />
        </mxCell>
        <mxCell id="IarRQ0k7UdLhVOw3tnw--153" value="&lt;font color=&quot;#ffffff&quot; style=&quot;font-size: 10px&quot;&gt;SADAD Payment G/W&lt;/font&gt;" style="rounded=1;whiteSpace=wrap;html=1;fillColor=#CC0066;" parent="1" vertex="1">
          <mxGeometry x="388" y="525" width="70" height="30" as="geometry" />
        </mxCell>
        <mxCell id="IarRQ0k7UdLhVOw3tnw--154" value="" style="rounded=1;whiteSpace=wrap;html=1;fontSize=10;" parent="1" vertex="1">
          <mxGeometry x="486" y="525" width="90" height="60" as="geometry" />
        </mxCell>
        <mxCell id="IarRQ0k7UdLhVOw3tnw--155" value="" style="rounded=1;whiteSpace=wrap;html=1;fillColor=#6D3E9C;fontSize=5;" parent="1" vertex="1">
          <mxGeometry x="496" y="545" width="70" height="30" as="geometry" />
        </mxCell>
        <mxCell id="IarRQ0k7UdLhVOw3tnw--156" value="COMPTEL&amp;nbsp; IL" style="text;html=1;strokeColor=none;fillColor=none;align=center;verticalAlign=middle;whiteSpace=wrap;rounded=0;fontSize=8;fontColor=none;labelPosition=center;verticalLabelPosition=middle;textDirection=ltr;fontStyle=1" parent="1" vertex="1">
          <mxGeometry x="480" y="525" width="70" height="20" as="geometry" />
        </mxCell>
        <mxCell id="IarRQ0k7UdLhVOw3tnw--157" value="&lt;font color=&quot;#ffffff&quot; style=&quot;font-size: 8px&quot;&gt;Service Provisioning &amp;amp; Activation&lt;/font&gt;" style="text;html=1;strokeColor=none;fillColor=none;align=left;verticalAlign=middle;whiteSpace=wrap;rounded=0;fontSize=8;fontColor=none;" parent="1" vertex="1">
          <mxGeometry x="506" y="545" width="50" height="30" as="geometry" />
        </mxCell>
        <mxCell id="IarRQ0k7UdLhVOw3tnw--158" value="" style="endArrow=classic;startArrow=classic;html=1;fontSize=8;fontColor=none;entryX=0.5;entryY=1;entryDx=0;entryDy=0;exitX=0.489;exitY=0;exitDx=0;exitDy=0;exitPerimeter=0;" parent="1" source="IarRQ0k7UdLhVOw3tnw--144" target="IarRQ0k7UdLhVOw3tnw--88" edge="1">
          <mxGeometry width="50" height="50" relative="1" as="geometry">
            <mxPoint x="368" y="145" as="sourcePoint" />
            <mxPoint x="400" y="175" as="targetPoint" />
          </mxGeometry>
        </mxCell>
        <mxCell id="IarRQ0k7UdLhVOw3tnw--164" value="" style="endArrow=classic;startArrow=classic;html=1;fontSize=8;fontColor=none;entryX=0.5;entryY=1;entryDx=0;entryDy=0;exitX=0.696;exitY=-0.05;exitDx=0;exitDy=0;exitPerimeter=0;" parent="1" source="IarRQ0k7UdLhVOw3tnw--144" target="IarRQ0k7UdLhVOw3tnw--92" edge="1">
          <mxGeometry width="50" height="50" relative="1" as="geometry">
            <mxPoint x="378" y="165" as="sourcePoint" />
            <mxPoint x="378" y="105" as="targetPoint" />
          </mxGeometry>
        </mxCell>
        <mxCell id="IarRQ0k7UdLhVOw3tnw--170" value="" style="endArrow=classic;html=1;fontSize=8;fontColor=none;entryX=1;entryY=0.75;entryDx=0;entryDy=0;" parent="1" target="IarRQ0k7UdLhVOw3tnw--117" edge="1">
          <mxGeometry width="50" height="50" relative="1" as="geometry">
            <mxPoint x="200" y="325" as="sourcePoint" />
            <mxPoint x="400" y="255" as="targetPoint" />
          </mxGeometry>
        </mxCell>
        <mxCell id="IarRQ0k7UdLhVOw3tnw--171" value="" style="endArrow=classic;html=1;fontSize=8;fontColor=none;entryX=1;entryY=0.5;entryDx=0;entryDy=0;exitX=-0.006;exitY=0.655;exitDx=0;exitDy=0;exitPerimeter=0;" parent="1" source="IarRQ0k7UdLhVOw3tnw--9" target="IarRQ0k7UdLhVOw3tnw--118" edge="1">
          <mxGeometry width="50" height="50" relative="1" as="geometry">
            <mxPoint x="210" y="335" as="sourcePoint" />
            <mxPoint x="90" y="335" as="targetPoint" />
          </mxGeometry>
        </mxCell>
        <mxCell id="IarRQ0k7UdLhVOw3tnw--172" value="" style="endArrow=classic;html=1;fontSize=8;fontColor=none;exitX=0;exitY=0.25;exitDx=0;exitDy=0;entryX=1;entryY=0.75;entryDx=0;entryDy=0;" parent="1" source="IarRQ0k7UdLhVOw3tnw--148" target="IarRQ0k7UdLhVOw3tnw--102" edge="1">
          <mxGeometry width="50" height="50" relative="1" as="geometry">
            <mxPoint x="350" y="305" as="sourcePoint" />
            <mxPoint x="400" y="255" as="targetPoint" />
          </mxGeometry>
        </mxCell>
        <mxCell id="IarRQ0k7UdLhVOw3tnw--174" value="" style="endArrow=classic;html=1;fontSize=8;fontColor=none;exitX=1.009;exitY=0.472;exitDx=0;exitDy=0;exitPerimeter=0;entryX=0;entryY=0.5;entryDx=0;entryDy=0;" parent="1" source="IarRQ0k7UdLhVOw3tnw--9" target="IarRQ0k7UdLhVOw3tnw--127" edge="1">
          <mxGeometry width="50" height="50" relative="1" as="geometry">
            <mxPoint x="350" y="305" as="sourcePoint" />
            <mxPoint x="400" y="255" as="targetPoint" />
          </mxGeometry>
        </mxCell>
        <mxCell id="IarRQ0k7UdLhVOw3tnw--175" value="" style="endArrow=classic;html=1;fontSize=8;fontColor=none;exitX=0.089;exitY=1.05;exitDx=0;exitDy=0;exitPerimeter=0;" parent="1" source="IarRQ0k7UdLhVOw3tnw--147" target="IarRQ0k7UdLhVOw3tnw--150" edge="1">
          <mxGeometry width="50" height="50" relative="1" as="geometry">
            <mxPoint x="350" y="425" as="sourcePoint" />
            <mxPoint x="400" y="375" as="targetPoint" />
          </mxGeometry>
        </mxCell>
        <mxCell id="IarRQ0k7UdLhVOw3tnw--176" value="" style="endArrow=classic;html=1;fontSize=8;fontColor=none;entryX=0.5;entryY=0;entryDx=0;entryDy=0;" parent="1" target="IarRQ0k7UdLhVOw3tnw--151" edge="1">
          <mxGeometry width="50" height="50" relative="1" as="geometry">
            <mxPoint x="263" y="492" as="sourcePoint" />
            <mxPoint x="400" y="375" as="targetPoint" />
          </mxGeometry>
        </mxCell>
        <mxCell id="IarRQ0k7UdLhVOw3tnw--178" value="" style="endArrow=classic;startArrow=classic;html=1;fontSize=8;fontColor=none;exitX=0.607;exitY=1.21;exitDx=0;exitDy=0;exitPerimeter=0;entryX=0.5;entryY=0;entryDx=0;entryDy=0;" parent="1" source="IarRQ0k7UdLhVOw3tnw--147" target="IarRQ0k7UdLhVOw3tnw--153" edge="1">
          <mxGeometry width="50" height="50" relative="1" as="geometry">
            <mxPoint x="350" y="425" as="sourcePoint" />
            <mxPoint x="400" y="375" as="targetPoint" />
          </mxGeometry>
        </mxCell>
        <mxCell id="IarRQ0k7UdLhVOw3tnw--179" value="" style="endArrow=classic;startArrow=classic;html=1;fontSize=8;fontColor=none;exitX=0.824;exitY=1.13;exitDx=0;exitDy=0;exitPerimeter=0;entryX=0.614;entryY=0.05;entryDx=0;entryDy=0;entryPerimeter=0;" parent="1" source="IarRQ0k7UdLhVOw3tnw--147" target="IarRQ0k7UdLhVOw3tnw--156" edge="1">
          <mxGeometry width="50" height="50" relative="1" as="geometry">
            <mxPoint x="350" y="425" as="sourcePoint" />
            <mxPoint x="400" y="375" as="targetPoint" />
          </mxGeometry>
        </mxCell>
        <mxCell id="IarRQ0k7UdLhVOw3tnw--180" value="" style="endArrow=classic;html=1;fontSize=8;fontColor=none;exitX=0.437;exitY=0.97;exitDx=0;exitDy=0;exitPerimeter=0;entryX=0.5;entryY=0;entryDx=0;entryDy=0;" parent="1" source="IarRQ0k7UdLhVOw3tnw--147" target="IarRQ0k7UdLhVOw3tnw--152" edge="1">
          <mxGeometry width="50" height="50" relative="1" as="geometry">
            <mxPoint x="340" y="495" as="sourcePoint" />
            <mxPoint x="342" y="515" as="targetPoint" />
          </mxGeometry>
        </mxCell>
        <mxCell id="dcX3_OKsn1yVr1EE7Z9R-26" value="&lt;font color=&quot;#ffffff&quot; size=&quot;1&quot;&gt;Offline Charging&lt;/font&gt;" style="rounded=1;whiteSpace=wrap;html=1;fillColor=#6D3E9C;" parent="1" vertex="1">
          <mxGeometry x="298" y="258.75" width="70" height="30" as="geometry" />
        </mxCell>
      </root>
    </mxGraphModel>
  </diagram>
  <diagram id="emBpoDDQHi7ankBB4eBQ" name="Page-2">
    <mxGraphModel dx="868" dy="426" grid="1" gridSize="10" guides="1" tooltips="1" connect="1" arrows="1" fold="1" page="1" pageScale="1" pageWidth="850" pageHeight="1100" math="0" shadow="0">
      <root>
        <mxCell id="kLQzN5aUTK6PEsNRKoTr-0" />
        <mxCell id="kLQzN5aUTK6PEsNRKoTr-1" parent="kLQzN5aUTK6PEsNRKoTr-0" />
        <mxCell id="pA9SVRrmrqsEENt89Ioi-1" value="" style="pointerEvents=1;shadow=0;dashed=0;html=1;strokeColor=none;labelPosition=center;verticalLabelPosition=bottom;verticalAlign=top;outlineConnect=0;align=center;shape=mxgraph.office.servers.server_generic;fillColor=#2072B8;fontSize=12;" vertex="1" parent="kLQzN5aUTK6PEsNRKoTr-1">
          <mxGeometry x="50" y="60" width="23" height="20" as="geometry" />
        </mxCell>
        <mxCell id="pA9SVRrmrqsEENt89Ioi-2" value="" style="pointerEvents=1;shadow=0;dashed=0;html=1;strokeColor=none;labelPosition=center;verticalLabelPosition=bottom;verticalAlign=top;outlineConnect=0;align=center;shape=mxgraph.office.servers.server_generic;fillColor=#7FBA42;fontSize=12;" vertex="1" parent="kLQzN5aUTK6PEsNRKoTr-1">
          <mxGeometry x="30" y="60" width="23" height="20" as="geometry" />
        </mxCell>
        <mxCell id="pA9SVRrmrqsEENt89Ioi-3" value="" style="pointerEvents=1;shadow=0;dashed=0;html=1;strokeColor=#d6b656;labelPosition=center;verticalLabelPosition=bottom;verticalAlign=top;outlineConnect=0;align=center;shape=mxgraph.office.servers.server_generic;fontSize=12;fillColor=#EBC85E;" vertex="1" parent="kLQzN5aUTK6PEsNRKoTr-1">
          <mxGeometry x="73" y="60" width="23" height="20" as="geometry" />
        </mxCell>
        <mxCell id="pA9SVRrmrqsEENt89Ioi-4" value="" style="pointerEvents=1;shadow=0;dashed=0;html=1;strokeColor=none;labelPosition=center;verticalLabelPosition=bottom;verticalAlign=top;outlineConnect=0;align=center;shape=mxgraph.office.servers.server_generic;fillColor=#CCCBCB;fontSize=12;" vertex="1" parent="kLQzN5aUTK6PEsNRKoTr-1">
          <mxGeometry x="96" y="60" width="23" height="20" as="geometry" />
        </mxCell>
        <mxCell id="pA9SVRrmrqsEENt89Ioi-6" value="" style="rounded=1;whiteSpace=wrap;html=1;dashed=1;glass=0;labelPosition=left;verticalLabelPosition=top;align=right;verticalAlign=bottom;fillColor=none;strokeColor=#7EA6E0;" vertex="1" parent="kLQzN5aUTK6PEsNRKoTr-1">
          <mxGeometry x="12.25" y="34.25" width="117.75" height="55.75" as="geometry" />
        </mxCell>
        <mxCell id="Y8g_TlmRh4n9MvNxGyG6-0" value="Oracle Finance" style="text;html=1;align=center;verticalAlign=middle;whiteSpace=wrap;rounded=0;glass=0;dashed=1;fontSize=12;" vertex="1" parent="kLQzN5aUTK6PEsNRKoTr-1">
          <mxGeometry x="12.25" y="38.5" width="118.5" height="20" as="geometry" />
        </mxCell>
      </root>
    </mxGraphModel>
  </diagram>
</mxfile>
